<svg viewBox="0 0 24 24" fill="none" class="h-6 w-6 self-center"><path d="M7 15.25C7.69036 15.25 8.25 14.6904 8.25 14C8.25 13.3096 7.69036 12.75 7 12.75C6.30964 12.75 5.75 13.3096 5.75 14C5.75 14.6904 6.30964 15.25 7 15.25Z" stroke="currentColor" stroke-width="1.5" stroke-linecap="round" stroke-linejoin="round"></path><path d="M12 15.25C12.6904 15.25 13.25 14.6904 13.25 14C13.25 13.3096 12.6904 12.75 12 12.75C11.3096 12.75 10.75 13.3096 10.75 14C10.75 14.6904 11.3096 15.25 12 15.25Z" stroke="currentColor" stroke-width="1.5" stroke-linecap="round" stroke-linejoin="round"></path><path d="M9 11.25C9.69036 11.25 10.25 10.6904 10.25 10C10.25 9.30964 9.69036 8.75 9 8.75C8.30964 8.75 7.75 9.30964 7.75 10C7.75 10.6904 8.30964 11.25 9 11.25Z" stroke="currentColor" stroke-width="1.5" stroke-linecap="round" stroke-linejoin="round"></path><path d="M15 11.25C15.6904 11.25 16.25 10.6904 16.25 10C16.25 9.30964 15.6904 8.75 15 8.75C14.3096 8.75 13.75 9.30964 13.75 10C13.75 10.6904 14.3096 11.25 15 11.25Z" stroke="currentColor" stroke-width="1.5" stroke-linecap="round" stroke-linejoin="round"></path><path d="M12 7.25C12.6904 7.25 13.25 6.69036 13.25 6C13.25 5.30964 12.6904 4.75 12 4.75C11.3096 4.75 10.75 5.30964 10.75 6C10.75 6.69036 11.3096 7.25 12 7.25Z" stroke="currentColor" stroke-width="1.5" stroke-linecap="round" stroke-linejoin="round"></path><path d="M17 15.25C17.6904 15.25 18.25 14.6904 18.25 14C18.25 13.3096 17.6904 12.75 17 12.75C16.3096 12.75 15.75 13.3096 15.75 14C15.75 14.6904 16.3096 15.25 17 15.25Z" stroke="currentColor" stroke-width="1.5" stroke-linecap="round" stroke-linejoin="round"></path><path d="M9.5 19.25C9.5 19.25 9.25001 16.75 7 16.75C4.74999 16.75 4.75 19.25 4.75 19.25" stroke="currentColor" stroke-width="1.5" stroke-linecap="round" stroke-linejoin="round"></path><path d="M14.5 19.25C14.5 19.25 14.25 16.75 12 16.75C9.74999 16.75 9.5 19.25 9.5 19.25" stroke="currentColor" stroke-width="1.5" stroke-linecap="round" stroke-linejoin="round"></path><path d="M19.25 19.25C19.25 19.25 19.25 16.75 17 16.75C14.75 16.75 14.5 19.25 14.5 19.25" stroke="currentColor" stroke-width="1.5" stroke-linecap="round" stroke-linejoin="round"></path></svg>